<?xml version="1.0" encoding="utf-8"?>
<!-- Generator: Adobe Illustrator 19.2.0, SVG Export Plug-In . SVG Version: 6.00 Build 0)  -->
<svg version="1.1" id="Layer_1" xmlns="http://www.w3.org/2000/svg" xmlns:xlink="http://www.w3.org/1999/xlink" x="0px" y="0px"
	 viewBox="0 0 225.9 58" style="enable-background:new 0 0 225.9 58;" xml:space="preserve">
<style type="text/css">
	.st0{fill:#6BA2BB;}
</style>
<g>
	<path d="M66.9,27.4c0.5,0.8,2.1,3.2,6.6,3.2c0.8,0,1.5-0.1,2.3-0.4c1.5-0.6,1.8-1.7,1.8-2.5c0-1.4-0.9-1.8-1.6-2.1
		c-0.5-0.2-0.5-0.2-2.5-0.7L71,24.5c-1.4-0.3-2-0.5-2.7-0.8c-1-0.4-3.6-1.7-3.6-5.2c0-4.1,3.4-6.7,8.5-6.7c4.6,0,7.1,2.3,8.6,4.3
		l-3.3,2.5c-0.7-1.1-2.1-3.2-5.5-3.2c-2.2,0-4,1-4,2.6c0,1.8,2,2.2,3.9,2.5l2.2,0.5c2.9,0.6,6.9,1.8,6.9,6.4c0,4.9-4.5,6.9-9.1,6.9
		c-1.2,0-2.5-0.1-3.8-0.5c-1.4-0.4-3.9-1.5-5.5-4.1L66.9,27.4z"/>
	<path d="M88.3,21.2V28c0,1.9,0,2.7,1.7,2.7c0.5,0,1,0,1.5-0.2v3.1c-1.1,0.2-1.8,0.2-2.6,0.2c-0.8,0-3.3,0-4-1.8
		c-0.2-0.6-0.2-1.6-0.2-3.1v-7.7h-2.2v-2.6h2.2v-5.4h3.6v5.4h3.2v2.6H88.3z"/>
	<path d="M97.4,29.6v4.2h-4v-4.2H97.4z"/>
	<path d="M119,29.6h-8l-1.2,4.2h-4.3l7.2-21.4h4.5l7.3,21.4h-4.3L119,29.6z M117.9,26.1l-2.9-9.8l-3,9.8H117.9z"/>
	<path d="M126.7,18.6h3.7v1.8c0.2-0.3,0.5-0.8,1.2-1.2c0.9-0.7,2.3-1.1,3.5-1.1c1.7,0,3.2,0.8,4,1.8c0.9,1.3,0.9,2.9,0.9,4.9v8.9
		h-3.6V26c0-1.1,0-1.9-0.1-2.3c-0.3-1.3-1.3-2-2.5-2c-1.2,0-2.3,0.7-2.8,1.7c-0.6,1.1-0.6,2.7-0.6,3.8v6.6h-3.7V18.6z"/>
	<path d="M156.1,12.3v21.4h-3.6v-1.5c-1.1,1.4-2.6,1.9-4.2,1.9c-3.6,0-6.7-2.7-6.7-7.7c0-4.5,2.5-8.4,6.9-8.4c1.5,0,2.9,0.4,4.1,1.7
		v-7.5H156.1z M151.7,22.9c-0.5-0.8-1.5-1.4-2.7-1.4c-2.5,0-3.6,2.2-3.6,4.6c0,0.3,0,4.8,3.6,4.8c1.9,0,3.6-1.4,3.5-4.7
		C152.5,25.3,152.3,23.9,151.7,22.9z"/>
	<path d="M162.2,18.6v2.2c0.5-0.8,1.5-2.6,4.8-2.5V22c-0.8,0-2.2,0.1-3.3,0.9c-1.5,1.2-1.6,2.7-1.6,5.2v5.6h-3.5V18.6H162.2z"/>
	<path d="M184,30.3c-1.9,2.5-4.3,3.8-7.4,3.8c-4,0-7.8-2.5-7.8-8.1c0-5.1,3.3-8,7.5-8c4,0,5.7,2.4,6,2.8c1.2,1.8,1.5,4.4,1.5,5.9
		h-11.2c0.4,2.4,1.9,3.8,4.3,3.8c2.5,0,3.5-1.5,3.9-2.1L184,30.3z M179.9,24.2c-0.3-2.4-1.8-3.2-3.4-3.2c-1.9,0-3.3,1.1-3.7,3.2
		H179.9z"/>
	<path d="M202.1,18.6h3.8l-4.5,15.2h-3.6l-2.7-9.7l-2.9,9.7h-3.6l-4.4-15.2h3.8l2.6,10.4l2.8-10.4h3.2l2.8,10.4L202.1,18.6z"/>
	<path d="M212.6,12.3v3.8c0,1.7,0,2.4-0.6,3.2c-1,1.2-2.3,1.4-3.1,1.4v-1.6c1.6-0.5,1.6-1.3,1.6-2.5h-1.8v-4.2H212.6z"/>
	<path d="M214.5,29.2c0.9,1.1,2.3,1.9,4.4,1.9c2.1,0,3-1,3-1.8c0-1-1.1-1.2-1.6-1.3c-0.5-0.1-3-0.6-3.5-0.7
		c-3.6-0.8-4.3-2.9-4.3-4.3c0-2.6,2.3-4.9,6.5-4.9c2.3,0,4,0.7,5,1.5c0.8,0.5,1.2,1,1.5,1.4l-2.6,2.4c-0.4-0.8-1.5-2.3-4.1-2.3
		c-1.7,0-2.5,0.8-2.5,1.5c0,1.1,1.1,1.4,3.1,1.7c3.2,0.6,4,0.7,5,1.5c0.9,0.7,1.5,1.9,1.5,3.2c0,2.4-2.1,5.2-6.8,5.2
		c-2.7,0-5.4-0.8-7.3-2.7L214.5,29.2z"/>
	<path d="M74.3,52.9h-9.8V38.7h9.3v1.3h-8V45H73v1.3h-7.2v5.4h8.5V52.9z"/>
	<path d="M76,43.3h1.2v1.6c0.1-0.3,0.2-0.5,0.6-0.9c0.6-0.6,1.5-0.9,2.3-0.9c3.1,0,4,3.1,4,5.1c0,2.6-1.4,5-4,5
		c-1.2,0-2.4-0.5-2.9-1.8V58H76V43.3z M77.3,49.9c0.4,1.6,1.5,2.1,2.6,2.1c2.3,0,3-2.4,3-4c0-2.1-1-3.8-3-3.8
		c-2.6,0-2.7,2.9-2.7,3.8C77.1,48.7,77.1,49.3,77.3,49.9z"/>
	<path d="M87.1,41H86v-1.8h1.2V41z M87.1,52.9H86v-9.6h1.2V52.9z"/>
	<path d="M93.7,47.5c0.6,0.2,1.4,0.4,2,1c0.4,0.5,0.6,1.1,0.6,1.7c0,1.4-1.1,2.9-3.6,2.9c-1.2,0-2-0.4-2.4-0.7
		c-0.7-0.5-1.1-1.1-1.5-1.9l1.2-0.4c0.2,0.9,1,1.9,2.7,1.9c1.7,0,2.4-0.9,2.4-1.9c0-1.3-1.3-1.6-2.1-1.7c-0.4-0.1-0.8-0.2-1.2-0.2
		c-0.9-0.2-2.5-0.6-2.5-2.5c0-1,0.6-2.7,3.5-2.7c0.9,0,1.7,0.2,2.2,0.5c0.9,0.5,1.1,1.3,1.2,1.6l-1.2,0.3c-0.1-0.3-0.2-0.7-0.8-1.1
		c-0.4-0.2-0.9-0.3-1.5-0.3c-0.7,0-2.2,0.2-2.2,1.6c0,1.1,0.9,1.3,2,1.6L93.7,47.5z"/>
	<path d="M106,50.8c-0.2,0.4-0.3,0.7-0.7,1.2c-0.3,0.3-1.2,1.2-3.1,1.2c-3.1,0-4.4-2.5-4.4-5c0-3.2,2-5.1,4.6-5.1
		c2.7,0,3.5,1.9,3.7,2.4l-1.1,0.3c-0.5-1.3-1.7-1.6-2.6-1.6c-1.9,0-3.3,1.4-3.3,4c0,1.5,0.5,4,3.2,4c1,0,2-0.4,2.6-1.6L106,50.8z"/>
	<path d="M111.2,53.2c-2.8,0-4.3-2.2-4.3-4.9c0-2.5,1.3-5.2,4.4-5.2c3.1,0,4.3,2.5,4.4,5C115.6,51,113.9,53.2,111.2,53.2z
		 M111.3,44.1c-0.8,0-1.7,0.3-2.2,1c-0.8,1-0.9,2.4-0.9,3.2c0,2.7,1.4,3.9,3.1,3.9c2.1,0,3.1-1.7,3.1-3.9
		C114.3,47.7,114.4,44.1,111.3,44.1z"/>
	<path d="M117.5,43.3h1.2v1.6c0.1-0.3,0.2-0.5,0.6-0.9c0.6-0.6,1.5-0.9,2.3-0.9c3.1,0,4,3.1,4,5.1c0,2.6-1.4,5-4,5
		c-1.2,0-2.4-0.5-2.9-1.8V58h-1.2V43.3z M118.8,49.9c0.4,1.6,1.5,2.1,2.6,2.1c2.3,0,3-2.4,3-4c0-2.1-0.9-3.8-3-3.8
		c-2.6,0-2.7,2.9-2.7,3.8C118.7,48.7,118.7,49.3,118.8,49.9z"/>
	<path d="M135.8,52.9c-1.5,0-2.5-0.1-2.6-1.6v-0.2c0,0.1-0.1,0.1-0.1,0.2c-0.6,1.2-2,1.8-3.4,1.8c-2.4,0-3-1.6-3-2.6
		c0-2.2,2.3-2.7,5.3-3.5l1.2-0.3v-0.5c0-0.7,0-2.2-2.3-2.2c-2.4,0-2.5,1.3-2.5,2.3l-1.3-0.2c0.1-0.5,0.2-1.1,0.6-1.7
		c0.7-1.1,1.9-1.5,3.2-1.5c1.2,0,2.9,0.3,3.4,1.9c0.1,0.5,0.1,0.9,0.1,1.9v3.1c0,1.7,0,2.1,1.5,2.1V52.9z M133.2,47.8l-0.6,0.1
		c-1.3,0.4-1.9,0.5-2.4,0.6c-1.1,0.3-2.3,0.7-2.3,1.9c0,0.8,0.6,1.6,1.9,1.6c0.9,0,1.9-0.4,2.6-1c0.7-0.7,0.8-1.5,0.8-2.5V47.8z"/>
	<path d="M138.1,52.9h-1.2V38.7h1.2V52.9z"/>
	<path d="M156.6,49.8c-1.4,3-3.5,3.5-5.3,3.5c-1,0-3.1-0.1-4.6-1.9c-1.1-1.3-1.7-3.3-1.7-5.5c0-3,1.1-7.6,6.1-7.6
		c3.8,0,4.9,2.3,5.5,3.7l-1.4,0.7c-0.3-1.2-0.9-2-1.5-2.5c-0.9-0.7-2.1-0.7-2.6-0.7c-1.5,0-2.6,0.4-3.5,1.7c-1,1.4-1.2,3-1.2,4.5
		c0,1,0.1,3.3,1.2,4.7c1.1,1.5,2.8,1.7,3.8,1.7c0.7,0,1.5-0.1,2.2-0.6c0.5-0.3,1.3-1.2,1.6-2.4L156.6,49.8z"/>
	<path d="M165.9,52.9h-1.2v-5.2c0-0.2,0-1.4,0-1.5c-0.1-1.1-0.7-2-2.2-2c-1.1,0-2.3,0.5-2.7,2.1c-0.1,0.6-0.1,1.2-0.1,2.5v4.2h-1.2
		V38.7h1.2v6.2c0.6-1.2,1.8-1.7,3-1.7c1.4,0,2.6,0.7,3,1.8c0.3,0.7,0.3,1.5,0.3,2.6V52.9z"/>
	<path d="M175.9,52.9h-1.2v-1.7c-0.1,0.2-0.2,0.5-0.5,0.9c-0.7,0.9-1.8,1.1-2.6,1.1c-1.9,0-2.6-1.2-2.9-1.8
		c-0.3-0.7-0.3-1.7-0.3-3.4v-4.7h1.2v5c0,2.1,0,3.8,2.2,3.8c0.5,0,1.4-0.1,2-0.8c0.8-0.9,0.9-1.9,0.9-3.7v-4.2h1.2V52.9z"/>
	<path d="M179.6,52.9h-1.2v-9.6h1.2v1.5c0.6-1.3,1.6-1.7,2.8-1.7c0.3,0,0.4,0,0.7,0.1v1.1c-0.4-0.1-0.4-0.1-0.7-0.1s-1.3,0-2,0.8
		c-0.7,0.8-0.7,1.8-0.8,3.8V52.9z"/>
	<path d="M191.6,50.8c-0.2,0.4-0.3,0.7-0.7,1.2c-0.3,0.3-1.2,1.2-3.1,1.2c-3.1,0-4.4-2.5-4.4-5c0-3.2,2-5.1,4.6-5.1
		c2.7,0,3.5,1.9,3.7,2.4l-1.1,0.3c-0.5-1.3-1.7-1.6-2.6-1.6c-1.9,0-3.3,1.4-3.3,4c0,1.5,0.5,4,3.2,4c1,0,2-0.4,2.6-1.6L191.6,50.8z"
		/>
	<path d="M200.6,52.9h-1.2v-5.2c0-0.2,0-1.4,0-1.5c-0.1-1.1-0.7-2-2.2-2c-1.1,0-2.3,0.5-2.7,2.1c-0.1,0.6-0.1,1.2-0.1,2.5v4.2h-1.2
		V38.7h1.2v6.2c0.6-1.2,1.8-1.7,3-1.7c1.4,0,2.6,0.7,3,1.8c0.3,0.7,0.3,1.5,0.3,2.6V52.9z"/>
</g>
<path class="st0" d="M53.1,18.2h-8.2c-1.7-6.7-6.9-12-13.5-13.7V0h-9.7v4.5C15,6.3,9.8,11.5,8.2,18.2H0v9.7h8.3
	c1.8,6.4,6.9,11.4,13.4,13.1v12h9.7v-12c6.5-1.7,11.6-6.7,13.4-13.1h8.3V18.2z M42.3,18.2H31.4V7.1C36.7,8.7,40.8,12.9,42.3,18.2z
	 M21.7,7.1v11.1H10.8C12.3,12.9,16.4,8.7,21.7,7.1z M11,27.9h10.7v10.5C16.6,36.9,12.6,33,11,27.9z M31.4,38.5V27.9h10.7
	C40.5,33,36.5,36.9,31.4,38.5z"/>
</svg>
